<?xml version="1.0" encoding="UTF-8" standalone="no"?>
<svg width="232px" height="232px" viewBox="0 0 232 232" version="1.1" xmlns="http://www.w3.org/2000/svg" xmlns:xlink="http://www.w3.org/1999/xlink" xmlns:sketch="http://www.bohemiancoding.com/sketch/ns">
    <title>res-logo-min-white-grey</title>
    <description>Created with Sketch (http://www.bohemiancoding.com/sketch)</description>
    <defs></defs>
    <g id="Page-1" stroke="none" stroke-width="1" fill="none" fill-rule="evenodd" sketch:type="MSPage">
        <g id="res-logo-min-white-grey" sketch:type="MSArtboardGroup">
            <g id="Group" sketch:type="MSLayerGroup">
                <rect id="Background" fill="#404040" sketch:type="MSShapeGroup" x="0" y="0" width="232" height="232"></rect>
                <path d="M52.23,146.69 C52.23,148.34 53.44,149.44 54.98,149.44 C56.52,149.44 57.62,148.23 57.62,146.69 L57.62,126.01 C57.62,107.97 68.29,99.06 80.17,97.96 C81.93,97.85 83.03,96.53 83.03,94.99 C83.03,93.34 81.82,92.02 80.17,92.02 C72.25,92.02 62.46,97.96 57.62,108.85 L57.62,95.21 C57.62,93.56 56.41,92.46 54.87,92.46 C53.33,92.46 52.23,93.67 52.23,95.21 L52.23,146.69 Z M135.02,141.19 C135.68,140.53 135.9,139.87 135.9,139.32 C135.9,137.89 134.69,136.79 133.26,136.79 C132.49,136.79 131.94,137.12 131.5,137.56 C126.99,141.96 121.38,145.26 113.35,145.26 C102.35,145.26 92.34,137.12 91.35,123.15 L135.35,123.15 C136.67,123.15 137.99,121.94 137.99,120.62 C137.99,104.56 127.98,91.58 112.25,91.58 C97.07,91.58 85.63,104.56 85.63,120.84 L85.63,121.06 C85.63,138.55 98.39,150.32 113.13,150.32 C123.25,150.32 129.52,146.69 135.02,141.19 Z M91.35,118.31 C92.34,105.88 100.92,96.53 112.03,96.53 C124.9,96.53 131.39,106.98 132.16,118.31 L91.35,118.31 Z M167.87,150.1 C178.65,150.1 187.23,143.72 187.23,133.71 L187.23,133.49 C187.23,123.59 177.77,120.29 168.75,117.76 C160.72,115.45 153.13,113.14 153.13,106.87 L153.13,106.65 C153.13,101.04 158.19,96.86 165.89,96.86 C171.28,96.86 176.67,98.62 181.51,101.48 C181.84,101.7 182.39,101.92 183.05,101.92 C184.48,101.92 185.69,100.71 185.69,99.28 C185.69,98.07 184.92,97.3 184.26,96.86 C178.87,93.78 172.16,91.8 166.11,91.8 C155.22,91.8 147.63,98.29 147.63,107.31 L147.63,107.53 C147.63,117.54 157.75,120.29 166.88,122.93 C174.69,125.13 181.73,127.55 181.73,134.15 L181.73,134.37 C181.73,140.86 175.79,145.04 168.2,145.04 C161.49,145.04 155.33,142.84 149.5,138.66 C149.06,138.33 148.4,138.11 147.74,138.11 C146.31,138.11 145.1,139.32 145.1,140.75 C145.1,141.63 145.65,142.51 146.09,142.84 C151.81,147.13 160.28,150.1 167.87,150.1 Z" id="res" fill="#FFFFFF" sketch:type="MSShapeGroup"></path>
            </g>
        </g>
    </g>
</svg>