<?xml version="1.0" encoding="UTF-8" standalone="no"?>
<svg width="232px" height="328px" viewBox="0 0 232 328" version="1.1" xmlns="http://www.w3.org/2000/svg" xmlns:xlink="http://www.w3.org/1999/xlink" xmlns:sketch="http://www.bohemiancoding.com/sketch/ns">
    <title>res-logo-full-mono</title>
    <description>Created with Sketch (http://www.bohemiancoding.com/sketch)</description>
    <defs></defs>
    <g id="Page-1" stroke="none" stroke-width="1" fill="none" fill-rule="evenodd" sketch:type="MSPage">
        <g id="res-logo-full-mono" sketch:type="MSArtboardGroup">
            <g id="Group" sketch:type="MSLayerGroup">
                <rect id="Background" fill="#404040" sketch:type="MSShapeGroup" x="0" y="0" width="232" height="232"></rect>
                <rect id="Bottom-bar" fill="#404040" sketch:type="MSShapeGroup" x="0" y="320" width="232" height="8"></rect>
                <path d="M52.23,146.69 C52.23,148.34 53.44,149.44 54.98,149.44 C56.52,149.44 57.62,148.23 57.62,146.69 L57.62,126.01 C57.62,107.97 68.29,99.06 80.17,97.96 C81.93,97.85 83.03,96.53 83.03,94.99 C83.03,93.34 81.82,92.02 80.17,92.02 C72.25,92.02 62.46,97.96 57.62,108.85 L57.62,95.21 C57.62,93.56 56.41,92.46 54.87,92.46 C53.33,92.46 52.23,93.67 52.23,95.21 L52.23,146.69 Z M135.02,141.19 C135.68,140.53 135.9,139.87 135.9,139.32 C135.9,137.89 134.69,136.79 133.26,136.79 C132.49,136.79 131.94,137.12 131.5,137.56 C126.99,141.96 121.38,145.26 113.35,145.26 C102.35,145.26 92.34,137.12 91.35,123.15 L135.35,123.15 C136.67,123.15 137.99,121.94 137.99,120.62 C137.99,104.56 127.98,91.58 112.25,91.58 C97.07,91.58 85.63,104.56 85.63,120.84 L85.63,121.06 C85.63,138.55 98.39,150.32 113.13,150.32 C123.25,150.32 129.52,146.69 135.02,141.19 Z M91.35,118.31 C92.34,105.88 100.92,96.53 112.03,96.53 C124.9,96.53 131.39,106.98 132.16,118.31 L91.35,118.31 Z M167.87,150.1 C178.65,150.1 187.23,143.72 187.23,133.71 L187.23,133.49 C187.23,123.59 177.77,120.29 168.75,117.76 C160.72,115.45 153.13,113.14 153.13,106.87 L153.13,106.65 C153.13,101.04 158.19,96.86 165.89,96.86 C171.28,96.86 176.67,98.62 181.51,101.48 C181.84,101.7 182.39,101.92 183.05,101.92 C184.48,101.92 185.69,100.71 185.69,99.28 C185.69,98.07 184.92,97.3 184.26,96.86 C178.87,93.78 172.16,91.8 166.11,91.8 C155.22,91.8 147.63,98.29 147.63,107.31 L147.63,107.53 C147.63,117.54 157.75,120.29 166.88,122.93 C174.69,125.13 181.73,127.55 181.73,134.15 L181.73,134.37 C181.73,140.86 175.79,145.04 168.2,145.04 C161.49,145.04 155.33,142.84 149.5,138.66 C149.06,138.33 148.4,138.11 147.74,138.11 C146.31,138.11 145.1,139.32 145.1,140.75 C145.1,141.63 145.65,142.51 146.09,142.84 C151.81,147.13 160.28,150.1 167.87,150.1 Z" id="res" fill="#FFFFFF" sketch:type="MSShapeGroup"></path>
                <path d="M46.9795,270.824 C46.9795,271.538 47.5465,272.105 48.2815,272.105 C48.9955,272.105 49.5625,271.538 49.5625,270.824 L49.5625,266.876 L52.8175,266.876 L56.3875,271.433 C56.6815,271.832 57.0595,272.105 57.6475,272.105 C58.2775,272.105 58.8865,271.622 58.8865,270.908 C58.8865,270.509 58.7185,270.236 58.4665,269.921 L55.6525,266.372 C57.6265,265.763 58.9915,264.335 58.9915,261.983 L58.9915,261.941 C58.9915,260.66 58.5505,259.568 57.7735,258.77 C56.8285,257.846 55.3795,257.3 53.5315,257.3 L48.2815,257.3 C47.5465,257.3 46.9795,257.867 46.9795,258.602 L46.9795,270.824 Z M49.5625,264.587 L49.5625,259.652 L53.3215,259.652 C55.2325,259.652 56.3665,260.513 56.3665,262.088 L56.3665,262.13 C56.3665,263.621 55.1905,264.587 53.3425,264.587 L49.5625,264.587 Z M70.9405,270.782 C71.1295,270.593 71.2765,270.32 71.2765,270.005 C71.2765,269.417 70.8355,268.976 70.2685,268.976 C69.9745,268.976 69.8065,269.06 69.6175,269.207 C68.9035,269.795 68.0635,270.173 66.9925,270.173 C65.3545,270.173 64.0735,269.165 63.8005,267.359 L70.7515,267.359 C71.4025,267.359 71.9485,266.855 71.9485,266.141 C71.9485,263.579 70.2055,260.681 66.6775,260.681 C63.5065,260.681 61.2595,263.285 61.2595,266.456 L61.2595,266.498 C61.2595,269.921 63.7375,272.252 66.9505,272.252 C68.6725,272.252 69.9325,271.685 70.9405,270.782 Z M63.7795,265.679 C64.0105,263.957 65.1025,262.76 66.6565,262.76 C68.3365,262.76 69.3025,264.041 69.4705,265.679 L63.7795,265.679 Z M78.3535,272.21 C80.6635,272.21 82.4695,271.055 82.4695,268.724 L82.4695,268.682 C82.4695,266.687 80.6425,265.952 79.0255,265.448 C77.7235,265.028 76.5265,264.692 76.5265,263.873 L76.5265,263.831 C76.5265,263.201 77.0935,262.739 78.0805,262.739 C78.8575,262.739 79.7815,263.033 80.6845,263.495 C80.8525,263.579 80.9785,263.621 81.1885,263.621 C81.7765,263.621 82.2385,263.18 82.2385,262.592 C82.2385,262.151 81.9865,261.815 81.6295,261.626 C80.5585,261.059 79.3195,260.723 78.1435,260.723 C75.9385,260.723 74.1955,262.004 74.1955,264.104 L74.1955,264.146 C74.1955,266.267 76.0225,266.939 77.6605,267.401 C78.9625,267.8 80.1385,268.094 80.1385,268.955 L80.1385,268.997 C80.1385,269.732 79.5085,270.194 78.4165,270.194 C77.4085,270.194 76.2955,269.837 75.2245,269.123 C75.0775,269.039 74.8885,268.976 74.6785,268.976 C74.0905,268.976 73.6495,269.438 73.6495,270.005 C73.6495,270.425 73.8595,270.74 74.1325,270.887 C75.4135,271.769 76.9465,272.21 78.3535,272.21 Z M94.1455,270.782 C94.3345,270.593 94.4815,270.32 94.4815,270.005 C94.4815,269.417 94.0405,268.976 93.4735,268.976 C93.1795,268.976 93.0115,269.06 92.8225,269.207 C92.1085,269.795 91.2685,270.173 90.1975,270.173 C88.5595,270.173 87.2785,269.165 87.0055,267.359 L93.9565,267.359 C94.6075,267.359 95.1535,266.855 95.1535,266.141 C95.1535,263.579 93.4105,260.681 89.8825,260.681 C86.7115,260.681 84.4645,263.285 84.4645,266.456 L84.4645,266.498 C84.4645,269.921 86.9425,272.252 90.1555,272.252 C91.8775,272.252 93.1375,271.685 94.1455,270.782 Z M86.9845,265.679 C87.2155,263.957 88.3075,262.76 89.8615,262.76 C91.5415,262.76 92.5075,264.041 92.6755,265.679 L86.9845,265.679 Z M100.9495,272.231 C102.6505,272.231 103.8055,271.517 104.5615,270.614 L104.5615,271.034 C104.5615,271.601 105.0655,272.105 105.8005,272.105 C106.4935,272.105 107.0395,271.58 107.0395,270.887 L107.0395,265.427 C107.0395,263.978 106.6615,262.802 105.8425,262.004 C105.0655,261.206 103.8265,260.765 102.1675,260.765 C100.7185,260.765 99.6475,261.017 98.5975,261.416 C98.2195,261.563 97.9045,261.962 97.9045,262.424 C97.9045,263.012 98.3875,263.474 98.9755,263.474 C99.1015,263.474 99.2275,263.453 99.3745,263.411 C100.0675,263.138 100.8655,262.97 101.8315,262.97 C103.6165,262.97 104.5825,263.81 104.5825,265.385 L104.5825,265.658 C103.7215,265.385 102.8395,265.196 101.6005,265.196 C98.8915,265.196 97.0225,266.372 97.0225,268.766 L97.0225,268.808 C97.0225,271.034 98.8705,272.231 100.9495,272.231 Z M101.6635,270.383 C100.4455,270.383 99.5005,269.774 99.5005,268.703 L99.5005,268.661 C99.5005,267.506 100.4665,266.813 102.1045,266.813 C103.1125,266.813 103.9735,267.002 104.6245,267.254 L104.6245,268.01 C104.6245,269.417 103.3435,270.383 101.6635,270.383 Z M110.0845,270.845 C110.0845,271.559 110.6515,272.105 111.3445,272.105 C112.0585,272.105 112.6255,271.538 112.6255,270.845 L112.6255,267.569 C112.6255,264.944 113.8645,263.558 115.6705,263.243 C116.2375,263.138 116.6785,262.697 116.6785,262.025 C116.6785,261.29 116.2165,260.765 115.4185,260.765 C114.3055,260.765 113.2135,261.815 112.6255,263.201 L112.6255,262.067 C112.6255,261.353 112.0585,260.786 111.3445,260.786 C110.6305,260.786 110.0845,261.353 110.0845,262.067 L110.0845,270.845 Z M123.8815,272.252 C125.7295,272.252 126.9265,271.622 127.9135,270.677 C128.1445,270.488 128.2705,270.215 128.2705,269.879 C128.2705,269.27 127.7875,268.766 127.1785,268.766 C126.8845,268.766 126.6325,268.913 126.4855,269.039 C125.7925,269.627 125.0155,270.026 124.0075,270.026 C122.0545,270.026 120.6895,268.451 120.6895,266.477 L120.6895,266.435 C120.6895,264.503 122.0545,262.907 123.9025,262.907 C124.9105,262.907 125.6245,263.306 126.2755,263.852 C126.4435,263.978 126.7165,264.104 127.0315,264.104 C127.6825,264.104 128.2075,263.6 128.2075,262.949 C128.2075,262.529 127.9765,262.214 127.8085,262.067 C126.8635,261.248 125.6665,260.681 123.9235,260.681 C120.5845,260.681 118.1485,263.327 118.1485,266.477 L118.1485,266.519 C118.1485,269.669 120.5845,272.252 123.8815,272.252 Z M130.7485,270.845 C130.7485,271.559 131.3155,272.105 132.0085,272.105 C132.7225,272.105 133.2895,271.559 133.2895,270.845 L133.2895,265.742 C133.2895,264.02 134.3185,262.991 135.7885,262.991 C137.3005,262.991 138.1615,263.978 138.1615,265.7 L138.1615,270.845 C138.1615,271.559 138.7285,272.105 139.4425,272.105 C140.1565,272.105 140.7025,271.559 140.7025,270.845 L140.7025,264.923 C140.7025,262.361 139.2535,260.681 136.7545,260.681 C135.0325,260.681 134.0035,261.584 133.2895,262.613 L133.2895,257.825 C133.2895,257.132 132.7225,256.565 132.0085,256.565 C131.2945,256.565 130.7485,257.132 130.7485,257.825 L130.7485,270.845 Z M153.2605,272.231 C154.9615,272.231 156.1165,271.517 156.8725,270.614 L156.8725,271.034 C156.8725,271.601 157.3765,272.105 158.1115,272.105 C158.8045,272.105 159.3505,271.58 159.3505,270.887 L159.3505,265.427 C159.3505,263.978 158.9725,262.802 158.1535,262.004 C157.3765,261.206 156.1375,260.765 154.4785,260.765 C153.0295,260.765 151.9585,261.017 150.9085,261.416 C150.5305,261.563 150.2155,261.962 150.2155,262.424 C150.2155,263.012 150.6985,263.474 151.2865,263.474 C151.4125,263.474 151.5385,263.453 151.6855,263.411 C152.3785,263.138 153.1765,262.97 154.1425,262.97 C155.9275,262.97 156.8935,263.81 156.8935,265.385 L156.8935,265.658 C156.0325,265.385 155.1505,265.196 153.9115,265.196 C151.2025,265.196 149.3335,266.372 149.3335,268.766 L149.3335,268.808 C149.3335,271.034 151.1815,272.231 153.2605,272.231 Z M153.9745,270.383 C152.7565,270.383 151.8115,269.774 151.8115,268.703 L151.8115,268.661 C151.8115,267.506 152.7775,266.813 154.4155,266.813 C155.4235,266.813 156.2845,267.002 156.9355,267.254 L156.9355,268.01 C156.9355,269.417 155.6545,270.383 153.9745,270.383 Z M162.3955,270.845 C162.3955,271.559 162.9625,272.105 163.6555,272.105 C164.3695,272.105 164.9365,271.559 164.9365,270.845 L164.9365,265.742 C164.9365,264.02 165.9655,262.991 167.4355,262.991 C168.9475,262.991 169.8085,263.978 169.8085,265.7 L169.8085,270.845 C169.8085,271.559 170.3755,272.105 171.0895,272.105 C171.8035,272.105 172.3495,271.559 172.3495,270.845 L172.3495,264.923 C172.3495,262.361 170.9005,260.681 168.4015,260.681 C166.6795,260.681 165.6505,261.584 164.9365,262.613 L164.9365,262.067 C164.9365,261.353 164.3695,260.786 163.6555,260.786 C162.9415,260.786 162.3955,261.353 162.3955,262.067 L162.3955,270.845 Z M186.3145,257.825 C186.3145,257.111 185.7475,256.565 185.0335,256.565 C184.3405,256.565 183.7735,257.111 183.7735,257.825 L183.7735,262.634 C182.9755,261.584 181.8205,260.681 179.9935,260.681 C177.3475,260.681 174.8485,262.76 174.8485,266.435 L174.8485,266.477 C174.8485,270.152 177.3895,272.231 179.9935,272.231 C181.7995,272.231 182.9545,271.307 183.7735,270.152 L183.7735,270.845 C183.7735,271.559 184.3405,272.105 185.0545,272.105 C185.7475,272.105 186.3145,271.559 186.3145,270.845 L186.3145,257.825 Z M180.6025,262.886 C182.3035,262.886 183.8155,264.293 183.8155,266.435 L183.8155,266.477 C183.8155,268.598 182.3035,270.026 180.6025,270.026 C178.8805,270.026 177.4105,268.619 177.4105,266.477 L177.4105,266.435 C177.4105,264.23 178.8595,262.886 180.6025,262.886 Z M30.799,297 L39.451,297 C40.081,297 40.606,296.496 40.606,295.845 C40.606,295.215 40.081,294.69 39.451,294.69 L32.08,294.69 L32.08,290.742 L38.401,290.742 C39.031,290.742 39.556,290.238 39.556,289.608 C39.556,288.957 39.031,288.432 38.401,288.432 L32.08,288.432 L32.08,284.61 L39.346,284.61 C39.976,284.61 40.501,284.106 40.501,283.455 C40.501,282.825 39.976,282.3 39.346,282.3 L30.799,282.3 C30.064,282.3 29.497,282.867 29.497,283.602 L29.497,295.698 C29.497,296.433 30.064,297 30.799,297 Z M54.172,282.825 C54.172,282.111 53.605,281.565 52.891,281.565 C52.198,281.565 51.631,282.111 51.631,282.825 L51.631,287.634 C50.833,286.584 49.678,285.681 47.851,285.681 C45.205,285.681 42.706,287.76 42.706,291.435 L42.706,291.477 C42.706,295.152 45.247,297.231 47.851,297.231 C49.657,297.231 50.812,296.307 51.631,295.152 L51.631,295.845 C51.631,296.559 52.198,297.105 52.912,297.105 C53.605,297.105 54.172,296.559 54.172,295.845 L54.172,282.825 Z M48.46,287.886 C50.161,287.886 51.673,289.293 51.673,291.435 L51.673,291.477 C51.673,293.598 50.161,295.026 48.46,295.026 C46.738,295.026 45.268,293.619 45.268,291.477 L45.268,291.435 C45.268,289.23 46.717,287.886 48.46,287.886 Z M67.213,287.067 C67.213,286.353 66.625,285.786 65.932,285.786 C65.218,285.786 64.651,286.353 64.651,287.067 L64.651,292.17 C64.651,293.892 63.622,294.9 62.152,294.9 C60.64,294.9 59.779,293.934 59.779,292.212 L59.779,287.067 C59.779,286.353 59.212,285.786 58.498,285.786 C57.805,285.786 57.238,286.353 57.238,287.067 L57.238,292.968 C57.238,295.551 58.687,297.231 61.186,297.231 C62.908,297.231 63.937,296.328 64.651,295.278 L64.651,295.845 C64.651,296.559 65.239,297.105 65.932,297.105 C66.646,297.105 67.213,296.538 67.213,295.845 L67.213,287.067 Z M75.508,297.252 C77.356,297.252 78.553,296.622 79.54,295.677 C79.771,295.488 79.897,295.215 79.897,294.879 C79.897,294.27 79.414,293.766 78.805,293.766 C78.511,293.766 78.259,293.913 78.112,294.039 C77.419,294.627 76.642,295.026 75.634,295.026 C73.681,295.026 72.316,293.451 72.316,291.477 L72.316,291.435 C72.316,289.503 73.681,287.907 75.529,287.907 C76.537,287.907 77.251,288.306 77.902,288.852 C78.07,288.978 78.343,289.104 78.658,289.104 C79.309,289.104 79.834,288.6 79.834,287.949 C79.834,287.529 79.603,287.214 79.435,287.067 C78.49,286.248 77.293,285.681 75.55,285.681 C72.211,285.681 69.775,288.327 69.775,291.477 L69.775,291.519 C69.775,294.669 72.211,297.252 75.508,297.252 Z M85.567,297.231 C87.268,297.231 88.423,296.517 89.179,295.614 L89.179,296.034 C89.179,296.601 89.683,297.105 90.418,297.105 C91.111,297.105 91.657,296.58 91.657,295.887 L91.657,290.427 C91.657,288.978 91.279,287.802 90.46,287.004 C89.683,286.206 88.444,285.765 86.785,285.765 C85.336,285.765 84.265,286.017 83.215,286.416 C82.837,286.563 82.522,286.962 82.522,287.424 C82.522,288.012 83.005,288.474 83.593,288.474 C83.719,288.474 83.845,288.453 83.992,288.411 C84.685,288.138 85.483,287.97 86.449,287.97 C88.234,287.97 89.2,288.81 89.2,290.385 L89.2,290.658 C88.339,290.385 87.457,290.196 86.218,290.196 C83.509,290.196 81.64,291.372 81.64,293.766 L81.64,293.808 C81.64,296.034 83.488,297.231 85.567,297.231 Z M86.281,295.383 C85.063,295.383 84.118,294.774 84.118,293.703 L84.118,293.661 C84.118,292.506 85.084,291.813 86.722,291.813 C87.73,291.813 88.591,292.002 89.242,292.254 L89.242,293.01 C89.242,294.417 87.961,295.383 86.281,295.383 Z M98.419,297.189 C99.091,297.189 99.616,297.084 100.162,296.895 C100.519,296.748 100.834,296.37 100.834,295.908 C100.834,295.32 100.33,294.858 99.763,294.858 C99.679,294.858 99.427,294.921 99.133,294.921 C98.272,294.921 97.768,294.522 97.768,293.535 L97.768,288.096 L99.763,288.096 C100.372,288.096 100.876,287.613 100.876,287.004 C100.876,286.395 100.372,285.912 99.763,285.912 L97.768,285.912 L97.768,284.022 C97.768,283.329 97.201,282.762 96.508,282.762 C95.794,282.762 95.227,283.329 95.227,284.022 L95.227,285.912 L94.807,285.912 C94.198,285.912 93.715,286.395 93.715,287.004 C93.715,287.613 94.198,288.096 94.807,288.096 L95.227,288.096 L95.227,293.934 C95.227,296.37 96.55,297.189 98.419,297.189 Z M103.291,283.056 C103.291,283.812 103.921,284.316 104.74,284.316 C105.559,284.316 106.189,283.812 106.189,283.056 L106.189,282.93 C106.189,282.174 105.559,281.691 104.74,281.691 C103.921,281.691 103.291,282.174 103.291,282.93 L103.291,283.056 Z M103.48,295.845 C103.48,296.559 104.047,297.105 104.74,297.105 C105.454,297.105 106.021,296.559 106.021,295.845 L106.021,287.067 C106.021,286.353 105.454,285.786 104.74,285.786 C104.026,285.786 103.48,286.353 103.48,287.067 L103.48,295.845 Z M114.61,297.252 C118.033,297.252 120.553,294.627 120.553,291.477 L120.553,291.435 C120.553,288.264 118.054,285.681 114.652,285.681 C111.25,285.681 108.73,288.306 108.73,291.477 L108.73,291.519 C108.73,294.669 111.229,297.252 114.61,297.252 Z M114.652,295.026 C112.678,295.026 111.271,293.409 111.271,291.477 L111.271,291.435 C111.271,289.503 112.573,287.907 114.61,287.907 C116.605,287.907 118.012,289.524 118.012,291.477 L118.012,291.519 C118.012,293.43 116.71,295.026 114.652,295.026 Z M123.136,295.845 C123.136,296.559 123.703,297.105 124.396,297.105 C125.11,297.105 125.677,296.559 125.677,295.845 L125.677,290.742 C125.677,289.02 126.706,287.991 128.176,287.991 C129.688,287.991 130.549,288.978 130.549,290.7 L130.549,295.845 C130.549,296.559 131.116,297.105 131.83,297.105 C132.544,297.105 133.09,296.559 133.09,295.845 L133.09,289.923 C133.09,287.361 131.641,285.681 129.142,285.681 C127.42,285.681 126.391,286.584 125.677,287.613 L125.677,287.067 C125.677,286.353 125.11,285.786 124.396,285.786 C123.682,285.786 123.136,286.353 123.136,287.067 L123.136,295.845 Z M147.895,297.21 C150.982,297.21 153.145,295.572 153.145,292.821 L153.145,292.779 C153.145,290.343 151.549,289.23 148.441,288.474 C145.606,287.802 144.934,287.298 144.934,286.164 L144.934,286.122 C144.934,285.156 145.816,284.379 147.328,284.379 C148.483,284.379 149.575,284.757 150.709,285.492 C150.919,285.618 151.129,285.681 151.381,285.681 C152.053,285.681 152.599,285.156 152.599,284.484 C152.599,283.98 152.326,283.623 152.032,283.455 C150.709,282.573 149.218,282.09 147.37,282.09 C144.451,282.09 142.351,283.833 142.351,286.353 L142.351,286.395 C142.351,289.104 144.115,290.028 147.244,290.784 C149.974,291.414 150.562,291.981 150.562,293.031 L150.562,293.073 C150.562,294.165 149.554,294.921 147.958,294.921 C146.362,294.921 145.06,294.375 143.842,293.409 C143.674,293.283 143.443,293.178 143.086,293.178 C142.414,293.178 141.868,293.703 141.868,294.375 C141.868,294.795 142.078,295.152 142.372,295.362 C144.01,296.58 145.9,297.21 147.895,297.21 Z M155.896,299.205 C155.896,299.919 156.463,300.465 157.156,300.465 C157.87,300.465 158.437,299.919 158.437,299.205 L158.437,295.278 C159.214,296.307 160.369,297.231 162.217,297.231 C164.842,297.231 167.362,295.152 167.362,291.477 L167.362,291.435 C167.362,287.739 164.821,285.681 162.217,285.681 C160.411,285.681 159.256,286.605 158.437,287.76 L158.437,287.067 C158.437,286.353 157.87,285.786 157.156,285.786 C156.442,285.786 155.896,286.353 155.896,287.067 L155.896,299.205 Z M161.608,295.026 C159.886,295.026 158.374,293.598 158.374,291.477 L158.374,291.435 C158.374,289.314 159.886,287.886 161.608,287.886 C163.33,287.886 164.779,289.293 164.779,291.435 L164.779,291.477 C164.779,293.661 163.351,295.026 161.608,295.026 Z M173.179,297.231 C174.88,297.231 176.035,296.517 176.791,295.614 L176.791,296.034 C176.791,296.601 177.295,297.105 178.03,297.105 C178.723,297.105 179.269,296.58 179.269,295.887 L179.269,290.427 C179.269,288.978 178.891,287.802 178.072,287.004 C177.295,286.206 176.056,285.765 174.397,285.765 C172.948,285.765 171.877,286.017 170.827,286.416 C170.449,286.563 170.134,286.962 170.134,287.424 C170.134,288.012 170.617,288.474 171.205,288.474 C171.331,288.474 171.457,288.453 171.604,288.411 C172.297,288.138 173.095,287.97 174.061,287.97 C175.846,287.97 176.812,288.81 176.812,290.385 L176.812,290.658 C175.951,290.385 175.069,290.196 173.83,290.196 C171.121,290.196 169.252,291.372 169.252,293.766 L169.252,293.808 C169.252,296.034 171.1,297.231 173.179,297.231 Z M173.893,295.383 C172.675,295.383 171.73,294.774 171.73,293.703 L171.73,293.661 C171.73,292.506 172.696,291.813 174.334,291.813 C175.342,291.813 176.203,292.002 176.854,292.254 L176.854,293.01 C176.854,294.417 175.573,295.383 173.893,295.383 Z M187.438,297.252 C189.286,297.252 190.483,296.622 191.47,295.677 C191.701,295.488 191.827,295.215 191.827,294.879 C191.827,294.27 191.344,293.766 190.735,293.766 C190.441,293.766 190.189,293.913 190.042,294.039 C189.349,294.627 188.572,295.026 187.564,295.026 C185.611,295.026 184.246,293.451 184.246,291.477 L184.246,291.435 C184.246,289.503 185.611,287.907 187.459,287.907 C188.467,287.907 189.181,288.306 189.832,288.852 C190,288.978 190.273,289.104 190.588,289.104 C191.239,289.104 191.764,288.6 191.764,287.949 C191.764,287.529 191.533,287.214 191.365,287.067 C190.42,286.248 189.223,285.681 187.48,285.681 C184.141,285.681 181.705,288.327 181.705,291.477 L181.705,291.519 C181.705,294.669 184.141,297.252 187.438,297.252 Z M203.377,295.782 C203.566,295.593 203.713,295.32 203.713,295.005 C203.713,294.417 203.272,293.976 202.705,293.976 C202.411,293.976 202.243,294.06 202.054,294.207 C201.34,294.795 200.5,295.173 199.429,295.173 C197.791,295.173 196.51,294.165 196.237,292.359 L203.188,292.359 C203.839,292.359 204.385,291.855 204.385,291.141 C204.385,288.579 202.642,285.681 199.114,285.681 C195.943,285.681 193.696,288.285 193.696,291.456 L193.696,291.498 C193.696,294.921 196.174,297.252 199.387,297.252 C201.109,297.252 202.369,296.685 203.377,295.782 Z M196.216,290.679 C196.447,288.957 197.539,287.76 199.093,287.76 C200.773,287.76 201.739,289.041 201.907,290.679 L196.216,290.679 Z" id="Research-and" fill="#636363" sketch:type="MSShapeGroup"></path>
            </g>
        </g>
    </g>
</svg>
