<?xml version="1.0" encoding="UTF-8" standalone="no"?>
<svg width="232px" height="232px" viewBox="0 0 232 232" version="1.1" xmlns="http://www.w3.org/2000/svg" xmlns:xlink="http://www.w3.org/1999/xlink" xmlns:sketch="http://www.bohemiancoding.com/sketch/ns">
    <title>res-logo-min-olive</title>
    <description>Created with Sketch (http://www.bohemiancoding.com/sketch)</description>
    <defs></defs>
    <g id="Page-1" stroke="none" stroke-width="1" fill="none" fill-rule="evenodd" sketch:type="MSPage">
        <g id="res-logo-min-olive" sketch:type="MSArtboardGroup" fill="#CECA13">
            <g id="Group" sketch:type="MSLayerGroup" transform="translate(52.000000, 92.000000)">
                <path d="M0.23,54.69 C0.23,56.34 1.44,57.44 2.98,57.44 C4.52,57.44 5.62,56.23 5.62,54.69 L5.62,34.01 C5.62,15.97 16.29,7.06 28.17,5.96 C29.93,5.85 31.03,4.53 31.03,2.99 C31.03,1.34 29.82,0.02 28.17,0.02 C20.25,0.02 10.46,5.96 5.62,16.85 L5.62,3.21 C5.62,1.56 4.41,0.46 2.87,0.46 C1.33,0.46 0.23,1.67 0.23,3.21 L0.23,54.69 Z M83.02,49.19 C83.68,48.53 83.9,47.87 83.9,47.32 C83.9,45.89 82.69,44.79 81.26,44.79 C80.49,44.79 79.94,45.12 79.5,45.56 C74.99,49.96 69.38,53.26 61.35,53.26 C50.35,53.26 40.34,45.12 39.35,31.15 L83.35,31.15 C84.67,31.15 85.99,29.94 85.99,28.62 C85.99,12.56 75.98,-0.42 60.25,-0.42 C45.07,-0.42 33.63,12.56 33.63,28.84 L33.63,29.06 C33.63,46.55 46.39,58.32 61.13,58.32 C71.25,58.32 77.52,54.69 83.02,49.19 Z M39.35,26.31 C40.34,13.88 48.92,4.53 60.03,4.53 C72.9,4.53 79.39,14.98 80.16,26.31 L39.35,26.31 Z M115.87,58.1 C126.65,58.1 135.23,51.72 135.23,41.71 L135.23,41.49 C135.23,31.59 125.77,28.29 116.75,25.76 C108.72,23.45 101.13,21.14 101.13,14.87 L101.13,14.65 C101.13,9.04 106.19,4.86 113.89,4.86 C119.28,4.86 124.67,6.62 129.51,9.48 C129.84,9.7 130.39,9.92 131.05,9.92 C132.48,9.92 133.69,8.71 133.69,7.28 C133.69,6.07 132.92,5.3 132.26,4.86 C126.87,1.78 120.16,-0.2 114.11,-0.2 C103.22,-0.2 95.63,6.29 95.63,15.31 L95.63,15.53 C95.63,25.54 105.75,28.29 114.88,30.93 C122.69,33.13 129.73,35.55 129.73,42.15 L129.73,42.37 C129.73,48.86 123.79,53.04 116.2,53.04 C109.49,53.04 103.33,50.84 97.5,46.66 C97.06,46.33 96.4,46.11 95.74,46.11 C94.31,46.11 93.1,47.32 93.1,48.75 C93.1,49.63 93.65,50.51 94.09,50.84 C99.81,55.13 108.28,58.1 115.87,58.1 Z" id="res" sketch:type="MSShapeGroup"></path>
            </g>
        </g>
    </g>
</svg>
